<svg xmlns="http://www.w3.org/2000/svg" xmlns:xlink="http://www.w3.org/1999/xlink" width="204" height="72.725" viewBox="0 0 204 72.725">
  <defs>
    <clipPath id="clip-path">
      <rect id="Rectángulo_30" data-name="Rectángulo 30" width="204" height="72.725" fill="none"/>
    </clipPath>
  </defs>
  <g id="Grupo_65" data-name="Grupo 65" transform="translate(0 0)">
    <g id="Grupo_64" data-name="Grupo 64" transform="translate(0 0)" clip-path="url(#clip-path)">
      <path id="Trazado_8" data-name="Trazado 8" d="M51.614,14.277v1.718a4.044,4.044,0,0,0-2.606-1.052,3.319,3.319,0,0,0-2.5,1.065,3.6,3.6,0,0,0-1.024,2.6,3.524,3.524,0,0,0,1.024,2.56A3.381,3.381,0,0,0,49.013,22.2a3.072,3.072,0,0,0,1.306-.25,3.8,3.8,0,0,0,.62-.335,7.325,7.325,0,0,0,.675-.509v1.756a5.255,5.255,0,0,1-2.621.706,4.824,4.824,0,0,1-3.522-1.442,4.765,4.765,0,0,1-1.454-3.505,4.961,4.961,0,0,1,1.213-3.281,4.857,4.857,0,0,1,3.879-1.765,4.911,4.911,0,0,1,2.505.7" transform="translate(23.066 7.115)" fill="#464545"/>
      <path id="Trazado_9" data-name="Trazado 9" d="M55.356,15.064H51.492v2.313h3.749v1.367H51.492v3.22h3.863v1.364H50.038V13.7h5.317Z" transform="translate(26.221 7.179)" fill="#464545"/>
      <path id="Trazado_10" data-name="Trazado 10" d="M54.611,23.555V13.268l7.026,7.349V13.924h1.455v10.22l-7.027-7.331v6.741Z" transform="translate(28.617 6.953)" fill="#464545"/>
      <path id="Trazado_11" data-name="Trazado 11" d="M64.528,15.064v8.265H63.074V15.064H60.858V13.7h5.877v1.366Z" transform="translate(31.891 7.179)" fill="#464545"/>
      <path id="Trazado_12" data-name="Trazado 12" d="M68.662,19.228l2.983,4.1H69.866l-2.751-3.941h-.261v3.941H65.4V13.7h1.7a4.259,4.259,0,0,1,2.758.718,2.633,2.633,0,0,1,.936,2.108,2.729,2.729,0,0,1-.587,1.76,2.628,2.628,0,0,1-1.547.943m-1.808-1.106h.46q2.064,0,2.065-1.579,0-1.479-2.01-1.478h-.515Z" transform="translate(34.271 7.179)" fill="#464545"/>
      <path id="Trazado_13" data-name="Trazado 13" d="M69.821,18.533a4.722,4.722,0,0,1,1.492-3.495,4.906,4.906,0,0,1,3.568-1.458,5.034,5.034,0,0,1,5.011,5.009,4.742,4.742,0,0,1-1.484,3.525,5.1,5.1,0,0,1-6.953.163,4.737,4.737,0,0,1-1.634-3.745m1.466.015a3.478,3.478,0,0,0,1.074,2.624A3.431,3.431,0,0,0,74.824,22.2a3.466,3.466,0,0,0,2.557-1.047,3.736,3.736,0,0,0,.014-5.16,3.6,3.6,0,0,0-5.072,0,3.471,3.471,0,0,0-1.036,2.556" transform="translate(36.588 7.117)" fill="#464545"/>
      <path id="Trazado_14" data-name="Trazado 14" d="M79.711,23.33V13.7h2.021a7.394,7.394,0,0,1,2.3.287,4.278,4.278,0,0,1,1.641.957,4.6,4.6,0,0,1,1.49,3.572,4.689,4.689,0,0,1-3.188,4.551,7.559,7.559,0,0,1-2.263.265Zm1.452-1.364h.657a5.352,5.352,0,0,0,1.626-.209,3.231,3.231,0,0,0,1.175-.69A3.29,3.29,0,0,0,85.7,18.514a3.346,3.346,0,0,0-1.062-2.57,4.017,4.017,0,0,0-2.813-.879h-.657Z" transform="translate(41.771 7.179)" fill="#464545"/>
      <path id="Trazado_15" data-name="Trazado 15" d="M90.61,15.064H86.75v2.313H90.5v1.367H86.75v3.22h3.86v1.364H85.3V13.7H90.61Z" transform="translate(44.697 7.179)" fill="#464545"/>
      <path id="Trazado_16" data-name="Trazado 16" d="M99.069,14.277v1.718a4.045,4.045,0,0,0-2.608-1.052,3.327,3.327,0,0,0-2.5,1.065,3.6,3.6,0,0,0-1.021,2.6,3.527,3.527,0,0,0,1.021,2.56,3.388,3.388,0,0,0,2.51,1.038,3.046,3.046,0,0,0,1.3-.25,3.534,3.534,0,0,0,.623-.335,7.334,7.334,0,0,0,.677-.509v1.756a5.263,5.263,0,0,1-2.621.706,4.831,4.831,0,0,1-3.525-1.442,4.775,4.775,0,0,1-1.452-3.505,4.934,4.934,0,0,1,1.218-3.281,4.841,4.841,0,0,1,3.873-1.765,4.921,4.921,0,0,1,2.509.7" transform="translate(47.933 7.115)" fill="#464545"/>
      <rect id="Rectángulo_27" data-name="Rectángulo 27" width="1.454" height="9.63" transform="translate(148.835 20.878)" fill="#464545"/>
      <path id="Trazado_17" data-name="Trazado 17" d="M105.28,15.064h-3.862v2.313h3.749v1.367h-3.749v3.22h3.862v1.364H99.963V13.7h5.317Z" transform="translate(52.383 7.179)" fill="#464545"/>
      <path id="Trazado_18" data-name="Trazado 18" d="M104.537,23.555V13.268l7.026,7.349V13.924h1.454v10.22l-7.026-7.331v6.741Z" transform="translate(54.78 6.953)" fill="#464545"/>
      <path id="Trazado_19" data-name="Trazado 19" d="M118.286,14.277v1.718a4.045,4.045,0,0,0-2.608-1.052,3.325,3.325,0,0,0-2.5,1.065,3.591,3.591,0,0,0-1.021,2.6,3.515,3.515,0,0,0,1.021,2.56,3.385,3.385,0,0,0,2.509,1.038,3.07,3.07,0,0,0,1.3-.25,3.8,3.8,0,0,0,.62-.335,7.326,7.326,0,0,0,.675-.509v1.756a5.257,5.257,0,0,1-2.618.706,4.824,4.824,0,0,1-3.525-1.442,4.772,4.772,0,0,1-1.455-3.505,4.956,4.956,0,0,1,1.216-3.281,4.844,4.844,0,0,1,3.874-1.765,4.913,4.913,0,0,1,2.509.7" transform="translate(58.003 7.115)" fill="#464545"/>
      <rect id="Rectángulo_28" data-name="Rectángulo 28" width="1.454" height="9.63" transform="translate(177.868 20.878)" fill="#464545"/>
      <path id="Trazado_20" data-name="Trazado 20" d="M125.054,21.2h-4.126l-1.071,2.338H118.29L123.056,13.3l4.6,10.237h-1.593Zm-.594-1.369-1.428-3.271-1.5,3.271Z" transform="translate(61.987 6.971)" fill="#464545"/>
      <path id="Trazado_21" data-name="Trazado 21" d="M130.166,15.19l-1.18.7a2.088,2.088,0,0,0-.629-.75,1.5,1.5,0,0,0-.8-.2,1.474,1.474,0,0,0-1,.341,1.064,1.064,0,0,0-.4.852c0,.468.349.849,1.049,1.132l.962.395a4.074,4.074,0,0,1,1.713,1.158,2.609,2.609,0,0,1,.546,1.676,2.96,2.96,0,0,1-.889,2.2,3.027,3.027,0,0,1-2.211.872,2.957,2.957,0,0,1-2.073-.745,3.423,3.423,0,0,1-1.006-2.091l1.472-.325a2.519,2.519,0,0,0,.351,1.17,1.661,1.661,0,0,0,2.44.171,1.568,1.568,0,0,0,.45-1.154,1.623,1.623,0,0,0-.078-.515,1.36,1.36,0,0,0-.244-.43,1.951,1.951,0,0,0-.427-.367,4.177,4.177,0,0,0-.626-.328l-.928-.387a2.67,2.67,0,0,1-1.977-2.445,2.325,2.325,0,0,1,.828-1.812,3,3,0,0,1,2.065-.736,2.887,2.887,0,0,1,2.6,1.614" transform="translate(65.104 7.115)" fill="#464545"/>
      <path id="Trazado_22" data-name="Trazado 22" d="M44.111,32.148l2.028-10.354,3.306,7.484,3.426-7.484,1.821,10.354H53.2l-.93-5.813-2.853,6.258L46.65,26.329l-1.035,5.819Z" transform="translate(23.115 11.421)" fill="#464545"/>
      <path id="Trazado_23" data-name="Trazado 23" d="M58.093,29.769H53.969L52.9,32.108H51.334L56.1,21.871l4.6,10.237H59.105ZM57.5,28.4l-1.428-3.277-1.5,3.277Z" transform="translate(26.9 11.461)" fill="#464545"/>
      <path id="Trazado_24" data-name="Trazado 24" d="M60.752,23.635V31.9H59.3V23.635H57.085V22.268h5.877v1.367Z" transform="translate(29.914 11.669)" fill="#464545"/>
      <path id="Trazado_25" data-name="Trazado 25" d="M67.11,23.635H63.247V25.95H67v1.367H63.247v3.217H67.11V31.9H61.791V22.268H67.11Z" transform="translate(32.38 11.669)" fill="#464545"/>
      <path id="Trazado_26" data-name="Trazado 26" d="M66.146,32.148l2.027-10.354,3.3,7.484L74.9,21.794l1.823,10.354H75.233L74.3,26.336l-2.85,6.258-2.769-6.264-1.036,5.819Z" transform="translate(34.662 11.421)" fill="#464545"/>
      <path id="Trazado_27" data-name="Trazado 27" d="M80.3,30.747H76.171L75.1,33.088H73.533L78.3,22.851l4.6,10.237H81.307ZM79.7,29.385l-1.43-3.278-1.494,3.278Zm.8-8.518-2.545,1.722-.693-.581,2-2.009Z" transform="translate(38.533 10.481)" fill="#464545"/>
      <path id="Trazado_28" data-name="Trazado 28" d="M82.953,23.635V31.9H81.5V23.635H79.286V22.268h5.875v1.367Z" transform="translate(41.548 11.669)" fill="#464545"/>
      <rect id="Rectángulo_29" data-name="Rectángulo 29" width="1.452" height="9.632" transform="translate(128.007 33.937)" fill="#464545"/>
      <path id="Trazado_29" data-name="Trazado 29" d="M93.413,22.847v1.719a4.03,4.03,0,0,0-2.606-1.056,3.323,3.323,0,0,0-2.5,1.068,3.588,3.588,0,0,0-1.024,2.6,3.5,3.5,0,0,0,1.024,2.557,3.371,3.371,0,0,0,2.507,1.042,3.054,3.054,0,0,0,1.3-.248,3.878,3.878,0,0,0,.62-.338,7,7,0,0,0,.677-.512V31.43a5.24,5.24,0,0,1-2.621.709A4.833,4.833,0,0,1,87.268,30.7a4.773,4.773,0,0,1-1.452-3.5,4.945,4.945,0,0,1,1.216-3.284,4.835,4.835,0,0,1,3.874-1.765,4.92,4.92,0,0,1,2.507.7" transform="translate(44.97 11.606)" fill="#464545"/>
      <path id="Trazado_30" data-name="Trazado 30" d="M97.69,29.769H93.567l-1.073,2.339H90.929L95.7,21.871l4.6,10.237H98.7ZM97.1,28.4,95.67,25.128l-1.5,3.277Z" transform="translate(47.649 11.461)" fill="#464545"/>
      <path id="Trazado_31" data-name="Trazado 31" d="M102.972,23.761l-1.18.7a1.991,1.991,0,0,0-.629-.747,1.659,1.659,0,0,0-1.809.143,1.062,1.062,0,0,0-.4.847q0,.706,1.05,1.137l.959.393a4.093,4.093,0,0,1,1.716,1.158,2.609,2.609,0,0,1,.543,1.675,2.958,2.958,0,0,1-.885,2.2,3.045,3.045,0,0,1-2.214.872,2.955,2.955,0,0,1-2.073-.745,3.434,3.434,0,0,1-1-2.092l1.474-.323a2.505,2.505,0,0,0,.349,1.172,1.656,1.656,0,0,0,2.437.169,1.568,1.568,0,0,0,.451-1.154,1.716,1.716,0,0,0-.076-.515,1.3,1.3,0,0,0-.245-.43,1.845,1.845,0,0,0-.428-.367,3.8,3.8,0,0,0-.623-.328l-.928-.387a2.672,2.672,0,0,1-1.98-2.445,2.315,2.315,0,0,1,.832-1.814,3,3,0,0,1,2.064-.735,2.885,2.885,0,0,1,2.6,1.615" transform="translate(50.854 11.606)" fill="#464545"/>
      <path id="Trazado_32" data-name="Trazado 32" d="M58.106,46.321l.238-.069L55.058,13.289l.008-.251L22.694,5.977l-.235-.072L5.742,34.5l-.134.2L27.633,59.433l.148.2ZM27.991,58.828l-3.19-4.27L14.86,41.24l3.86,2.169,16.6,9.332.192.169.159-.143L53.437,47.66ZM33.025,50.7,14.088,40.065l5.032-12.5L24.3,42.9l.038.25.154,0,2.377,2.1ZM22.314,16.183l9.626.521L18.974,26.353l-.227.117.053.149L14.69,36.838,18.866,16ZM44.64,32.117,41.473,42.255l-8.225-1.4,2.714-1.759,6.6-4.275.069-.044.128-.084-.026-.1,2.728-5.105ZM27.618,22.723l8.727.468,2.713.143,1.561,5.846,1.393,5.226-9.617,6.226L23.5,33.412l2.844-7.388ZM42.486,33.67l-1.811-6.786L39.6,22.857l-.037-.145-.11-.006-3.845-3.927,10.763,7.632ZM32.819,16.855l2.757,2.816,2.919,2.984-11.313-.608-.04.1-4.659,2.4,3.339-2.484Zm-13.28,9.934L25.8,23.572l.988-.509-.226.588-3.784,9.828-.052.139.085.07.86,5.339-2.163-6.4Zm5.348,15.705L23.569,34.3l8.784,7.129.093-.059,2.949.5,2.717.465-7.038.082Zm21.384-16.95L33.065,16.18,32.887,16l-.136.1-10.339-.559L43.224,13.1ZM53.5,35.371,42.256,41.922l4.836-15.487.12-.223-.136-.1-.744-3.043-1.74-7.1,5.793,12.607Zm-18,16.665-10.051-8.9,16.217-.187.251.046.046-.151,1.163-.678,8.382-4.883-1.088,1Zm22.136-6.255-20.905,6L51.582,38.1l2.534-2.335.224-.13-.091-.2.425-11.625.207-5.741ZM29.944,8.223,54.4,13.557l-.492,13.448-.259,7.123-9.87-21.486-.062-.248-.215.024L32.749,9.089ZM22.758,6.676l17.615,5.454,1.538.474L18.591,15.331l-.253-.012-.04.21-6.12,9.248ZM6.425,34.648l3.223-4.872,8.311-12.559-4.59,22.9-.091.23.186.107,9.671,12.951Z" transform="translate(2.939 3.095)" fill="#464545"/>
    </g>
  </g>
</svg>
